<svg width="92" height="24" viewBox="0 0 92 24" fill="none" xmlns="http://www.w3.org/2000/svg">
<path d="M77.9636 17.6552L77.7914 17.1858L77.9636 17.6552C78.1567 17.5844 78.3218 17.4659 78.5082 17.332C78.5207 17.3231 78.5332 17.314 78.5459 17.305L84.9215 12.7373L84.9393 12.7245C85.1822 12.5505 85.3918 12.4004 85.5522 12.2614C85.722 12.1144 85.8751 11.9484 85.9725 11.7278C86.0747 11.4962 86.1166 11.2425 86.0943 10.9903C86.0731 10.7501 85.9815 10.5436 85.868 10.3499C85.7608 10.1667 85.6106 9.95712 85.4366 9.71418L85.4238 9.69638L85.4111 9.67861C85.237 9.43565 85.0869 9.22609 84.9479 9.06563C84.8009 8.89588 84.6349 8.7427 84.4143 8.64536C84.1827 8.54317 83.929 8.50125 83.6768 8.52352C83.4367 8.54474 83.2302 8.63639 83.0364 8.74983C82.8532 8.85707 82.6437 9.0072 82.4007 9.18126L82.3829 9.19402L76.0074 13.7617C75.9947 13.7708 75.9821 13.7798 75.9696 13.7887C75.7829 13.9222 75.6176 14.0403 75.4884 14.2005C75.3592 14.3606 75.2787 14.5471 75.1877 14.7578C75.1816 14.7719 75.1755 14.7861 75.1693 14.8004L74.4234 16.5227C74.4198 16.531 74.4161 16.5395 74.4124 16.5479C74.3482 16.6961 74.2796 16.8544 74.2431 16.9908C74.2029 17.141 74.1639 17.3991 74.3363 17.6399C74.5088 17.8806 74.7658 17.9266 74.9209 17.9369C75.0618 17.9463 75.2338 17.9322 75.3948 17.919C75.4039 17.9183 75.4131 17.9175 75.4222 17.9168L77.2928 17.7645C77.3084 17.7632 77.3238 17.7619 77.3391 17.7607C77.5679 17.7423 77.7704 17.7261 77.9636 17.6552Z" stroke="#2CE3E0"/>
<path d="M81.8943 9.47036L84.4956 8.29532L86.4517 11.0257L84.5024 13.1108L81.8943 9.47036Z" fill="#2CE3E0"/>
<path d="M15.5 5C16.9045 5 17.6067 5 18.1111 5.33706C18.3295 5.48298 18.517 5.67048 18.6629 5.88886C19 6.39331 19 7.09554 19 8.5V18C19 19.8856 19 20.8284 18.4142 21.4142C17.8284 22 16.8856 22 15 22H9C7.11438 22 6.17157 22 5.58579 21.4142C5 20.8284 5 19.8856 5 18V8.5C5 7.09554 5 6.39331 5.33706 5.88886C5.48298 5.67048 5.67048 5.48298 5.88886 5.33706C6.39331 5 7.09554 5 8.5 5" stroke="#333333"/>
<path d="M9 5C9 3.89543 9.89543 3 11 3H13C14.1046 3 15 3.89543 15 5C15 6.10457 14.1046 7 13 7H11C9.89543 7 9 6.10457 9 5Z" stroke="#333333"/>
<path d="M9 12L15 12" stroke="#333333" stroke-linecap="round"/>
<path d="M9 16L13 16" stroke="#333333" stroke-linecap="round"/>
<path d="M25.032 18V9.36H26.016V18H25.032ZM25.536 18V17.136H30.456V18H25.536ZM31.6866 18V11.88H32.6466V18H31.6866ZM31.6146 10.488V9.36H32.7186V10.488H31.6146ZM35.0499 18V11.016C35.0499 10.456 35.2099 10.02 35.5299 9.708C35.8579 9.396 36.3539 9.24 37.0179 9.24C37.1779 9.24 37.3019 9.248 37.3899 9.264C37.4859 9.28 37.5659 9.3 37.6299 9.324V10.08C37.5739 10.064 37.4939 10.048 37.3899 10.032C37.2939 10.016 37.1899 10.008 37.0779 10.008C36.7099 10.008 36.4379 10.1 36.2619 10.284C36.0939 10.468 36.0099 10.728 36.0099 11.064V18H35.0499ZM33.7899 12.696V11.88H37.4979V12.696H33.7899ZM41.0618 18.12C40.4778 18.12 39.9618 17.984 39.5138 17.712C39.0658 17.432 38.7138 17.052 38.4578 16.572C38.2018 16.092 38.0738 15.54 38.0738 14.916C38.0738 14.292 38.1978 13.744 38.4458 13.272C38.7018 12.792 39.0578 12.42 39.5138 12.156C39.9698 11.892 40.4938 11.76 41.0858 11.76C41.6538 11.76 42.1458 11.884 42.5618 12.132C42.9858 12.38 43.3098 12.728 43.5338 13.176C43.7658 13.624 43.8818 14.152 43.8818 14.76C43.8818 14.84 43.8778 14.916 43.8698 14.988C43.8698 15.06 43.8618 15.14 43.8458 15.228H38.7938V14.424H43.2578L42.9458 14.868C42.9458 14.132 42.7818 13.568 42.4538 13.176C42.1338 12.776 41.6778 12.576 41.0858 12.576C40.4778 12.576 39.9858 12.788 39.6098 13.212C39.2418 13.628 39.0578 14.192 39.0578 14.904C39.0578 15.632 39.2418 16.216 39.6098 16.656C39.9858 17.088 40.4858 17.304 41.1098 17.304C41.5018 17.304 41.8458 17.22 42.1418 17.052C42.4378 16.876 42.6538 16.628 42.7898 16.308H43.7018C43.5018 16.868 43.1658 17.312 42.6938 17.64C42.2298 17.96 41.6858 18.12 41.0618 18.12Z" fill="#2CE3E0"/>
<path d="M48.292 18.108C47.284 18.108 46.48 17.86 45.88 17.364C45.288 16.868 44.94 16.16 44.836 15.24H45.796C45.884 15.904 46.136 16.404 46.552 16.74C46.968 17.076 47.544 17.244 48.28 17.244C48.904 17.244 49.372 17.128 49.684 16.896C50.004 16.656 50.164 16.308 50.164 15.852C50.164 15.46 50.056 15.148 49.84 14.916C49.624 14.684 49.288 14.492 48.832 14.34L47.38 13.836C46.644 13.58 46.1 13.272 45.748 12.912C45.396 12.544 45.22 12.08 45.22 11.52C45.22 11.056 45.336 10.656 45.568 10.32C45.8 9.976 46.128 9.708 46.552 9.516C46.976 9.324 47.468 9.228 48.028 9.228C48.892 9.228 49.584 9.456 50.104 9.912C50.624 10.36 50.924 11 51.004 11.832H50.044C49.94 11.232 49.724 10.792 49.396 10.512C49.076 10.232 48.612 10.092 48.004 10.092C47.428 10.092 46.98 10.208 46.66 10.44C46.34 10.672 46.18 11 46.18 11.424C46.18 11.784 46.292 12.072 46.516 12.288C46.74 12.504 47.088 12.692 47.56 12.852L49.108 13.392C49.78 13.624 50.284 13.94 50.62 14.34C50.956 14.732 51.124 15.232 51.124 15.84C51.124 16.56 50.876 17.12 50.38 17.52C49.892 17.912 49.196 18.108 48.292 18.108ZM53.1208 20.46L54.4888 17.28L54.7048 16.944L56.7088 11.88H57.6928L54.1408 20.46H53.1208ZM54.5968 18.06L51.8488 11.88H52.9048L55.2688 17.412L54.5968 18.06ZM58.8741 18V11.88H59.7741V13.32H59.8341V18H58.8741ZM63.2541 18V13.992C63.2541 13.528 63.1381 13.18 62.9061 12.948C62.6741 12.716 62.3301 12.6 61.8741 12.6C61.4741 12.6 61.1181 12.688 60.8061 12.864C60.5021 13.04 60.2621 13.284 60.0861 13.596C59.9181 13.908 59.8341 14.272 59.8341 14.688L59.6781 13.236C59.8861 12.78 60.2021 12.42 60.6261 12.156C61.0581 11.892 61.5461 11.76 62.0901 11.76C62.7301 11.76 63.2421 11.944 63.6261 12.312C64.0181 12.672 64.2141 13.148 64.2141 13.74V18H63.2541ZM68.4817 18.12C67.9217 18.12 67.4217 17.984 66.9817 17.712C66.5497 17.432 66.2057 17.052 65.9497 16.572C65.7017 16.084 65.5777 15.532 65.5777 14.916C65.5777 14.3 65.7017 13.756 65.9497 13.284C66.2057 12.812 66.5497 12.44 66.9817 12.168C67.4217 11.896 67.9177 11.76 68.4697 11.76C68.9257 11.76 69.3337 11.848 69.6937 12.024C70.0617 12.2 70.3617 12.452 70.5937 12.78C70.8337 13.1 70.9857 13.476 71.0497 13.908H70.1617C70.0817 13.516 69.8977 13.196 69.6097 12.948C69.3217 12.7 68.9497 12.576 68.4937 12.576C68.1017 12.576 67.7617 12.672 67.4737 12.864C67.1857 13.056 66.9617 13.328 66.8017 13.68C66.6417 14.032 66.5617 14.444 66.5617 14.916C66.5617 15.388 66.6417 15.804 66.8017 16.164C66.9617 16.524 67.1857 16.804 67.4737 17.004C67.7697 17.204 68.1137 17.304 68.5057 17.304C68.9457 17.304 69.3137 17.184 69.6097 16.944C69.9057 16.696 70.0937 16.376 70.1737 15.984H71.0617C70.9897 16.408 70.8297 16.784 70.5817 17.112C70.3417 17.432 70.0417 17.68 69.6817 17.856C69.3217 18.032 68.9217 18.12 68.4817 18.12Z" fill="black"/>
</svg>
